<?xml version="1.0" standalone="no"?>
<!DOCTYPE svg PUBLIC "-//W3C//DTD SVG 20010904//EN"
 "http://www.w3.org/TR/2001/REC-SVG-20010904/DTD/svg10.dtd">
<svg version="1.0" xmlns="http://www.w3.org/2000/svg"
 width="700.000000pt" height="700.000000pt" viewBox="0 0 700.000000 700.000000"
 preserveAspectRatio="xMidYMid meet">
<metadata>
Created by potrace 1.11, written by Peter Selinger 2001-2013
</metadata>
<g transform="translate(0.000000,700.000000) scale(0.100000,-0.100000)"
fill="#000000" stroke="none">
<path d="M3247 6934 c-1 -1 -33 -5 -72 -8 -79 -6 -150 -15 -181 -21 -12 -3
-39 -7 -60 -11 -173 -27 -350 -77 -545 -154 -427 -169 -790 -428 -1143 -815
-86 -94 -346 -447 -346 -470 0 -2 -15 -28 -34 -57 -69 -110 -251 -495 -271
-578 -1 -3 -4 -12 -8 -20 -48 -124 -137 -451 -153 -558 -2 -20 -9 -59 -14 -87
-11 -61 -27 -183 -37 -290 -5 -44 -8 -199 -8 -345 0 -279 6 -372 36 -565 6
-38 13 -83 15 -100 3 -16 7 -37 9 -45 2 -8 7 -31 10 -50 8 -48 23 -109 52
-215 14 -49 26 -97 28 -105 2 -8 13 -44 25 -80 175 -536 476 -1028 853 -1395
143 -139 160 -154 287 -252 387 -297 846 -498 1290 -563 41 -6 86 -13 100 -15
102 -17 353 -22 520 -11 102 6 307 33 321 42 4 2 24 6 45 10 89 13 279 69 424
124 716 274 1334 866 1694 1624 30 63 67 146 81 183 15 37 35 88 45 113 42
104 135 430 156 550 37 202 43 245 50 330 3 36 8 72 11 80 11 31 10 568 -2
690 -49 495 -162 897 -371 1315 -91 182 -125 242 -213 374 -31 46 -60 91 -66
99 -14 21 -23 33 -117 152 -76 96 -306 337 -403 421 -421 367 -987 623 -1505
683 -132 15 -189 19 -338 20 -90 1 -164 1 -165 0z"/>
</g>
</svg>
