<?xml version="1.0" encoding="UTF-8" standalone="no"?>
<svg
   xmlns:dc="http://purl.org/dc/elements/1.1/"
   xmlns:cc="http://creativecommons.org/ns#"
   xmlns:rdf="http://www.w3.org/1999/02/22-rdf-syntax-ns#"
   xmlns:svg="http://www.w3.org/2000/svg"
   xmlns="http://www.w3.org/2000/svg"
   xmlns:sodipodi="http://sodipodi.sourceforge.net/DTD/sodipodi-0.dtd"
   xmlns:inkscape="http://www.inkscape.org/namespaces/inkscape"
   sodipodi:docname="favico.svg"
   inkscape:version="1.0 (4035a4fb49, 2020-05-01)"
   id="svg8"
   version="1.1"
   viewBox="0 0 135.46666 135.46666"
   height="512"
   width="512">
  <defs
     id="defs2" />
  <sodipodi:namedview
     inkscape:window-maximized="1"
     inkscape:window-y="-9"
     inkscape:window-x="-9"
     inkscape:window-height="1001"
     inkscape:window-width="1920"
     units="px"
     showgrid="false"
     inkscape:document-rotation="0"
     inkscape:current-layer="layer2"
     inkscape:document-units="mm"
     inkscape:cy="378.70886"
     inkscape:cx="332.82036"
     inkscape:zoom="0.66779355"
     inkscape:pageshadow="2"
     inkscape:pageopacity="0"
     borderopacity="1.0"
     bordercolor="#666666"
     pagecolor="#cb80ff"
     id="base" />
  <metadata
     id="metadata5">
    <rdf:RDF>
      <cc:Work
         rdf:about="">
        <dc:format>image/svg+xml</dc:format>
        <dc:type
           rdf:resource="http://purl.org/dc/dcmitype/StillImage" />
        <dc:title></dc:title>
      </cc:Work>
    </rdf:RDF>
  </metadata>
  <g
     inkscape:label="Layer 2"
     id="layer2"
     inkscape:groupmode="layer">
    <ellipse
       ry="65.995277"
       rx="58.760689"
       cy="67.235031"
       cx="65.883675"
       id="path217"
       style="fill:#241f1c;stroke-width:0.264583" />
  </g>
  <g
     id="layer1"
     inkscape:groupmode="layer"
     inkscape:label="Layer 1">
    <ellipse
       ry="48.664436"
       rx="38.175598"
       cy="83.230354"
       cx="66.599403"
       id="path14"
       style="fill:#ffb380;stroke-width:0.30601" />
    <ellipse
       ry="14.741072"
       rx="20.599701"
       cy="35.381065"
       cx="66.067551"
       id="path18"
       style="fill:#ffffff;stroke-width:0.264583" />
    <circle
       r="9.260417"
       style="fill:#ffffff;stroke-width:0.296979"
       id="path20-3"
       cx="98.842163"
       cy="41.127838" />
    <circle
       cy="41.908108"
       cx="33.639885"
       id="path20-3-8"
       style="fill:#ffffff;stroke-width:0.296979"
       r="9.260417" />
    <path
       transform="scale(0.26458333)"
       id="path54"
       d="m 112.90371,341.70405 c -3.2375,-0.25204 -3.38931,-0.36421 -3.92857,-2.90264 -0.30851,-1.45225 -0.54767,-12.60475 -0.53146,-24.78332 0.0324,-24.36818 0.94256,-33.13658 5.36385,-51.67674 11.06366,-46.39414 35.23292,-84.84067 68.06132,-108.26653 l 4.80215,-3.42674 3.3716,3.14323 c 4.88409,4.55326 9.29698,7.40479 17.52411,11.32374 13.47769,6.42004 26.75804,9.24876 43.45509,9.25597 23.85399,0.0103 44.36029,-6.90005 60.10088,-20.25321 l 4.65744,-3.95104 5.9599,4.17968 c 34.77739,24.38936 61.28975,69.21052 70.15373,118.60021 2.83778,15.81198 4.25523,35.83035 3.54548,50.07215 l -0.44856,9.00073 -12.2168,0.46305 c -6.71924,0.25468 -66.37752,2.37406 -132.57395,4.70973 -66.19642,2.33567 -123.41071,4.36531 -127.14285,4.51029 -3.73215,0.14499 -8.30115,0.14563 -10.15336,0.001 z"
       style="fill:none;stroke-width:0.714286" />
    <path
       transform="scale(0.26458333)"
       id="path56"
       d="m 112.90371,341.70405 c -3.2375,-0.25204 -3.38931,-0.36421 -3.92857,-2.90264 -0.30851,-1.45225 -0.54767,-12.60475 -0.53146,-24.78332 0.0324,-24.36818 0.94256,-33.13658 5.36385,-51.67674 11.06366,-46.39414 35.23292,-84.84067 68.06132,-108.26653 l 4.80215,-3.42674 3.3716,3.14323 c 4.88409,4.55326 9.29698,7.40479 17.52411,11.32374 13.47769,6.42004 26.75804,9.24876 43.45509,9.25597 23.85399,0.0103 44.36029,-6.90005 60.10088,-20.25321 l 4.65744,-3.95104 5.9599,4.17968 c 34.77739,24.38936 61.28975,69.21052 70.15373,118.60021 2.83778,15.81198 4.25523,35.83035 3.54548,50.07215 l -0.44856,9.00073 -12.2168,0.46305 c -6.71924,0.25468 -66.37752,2.37406 -132.57395,4.70973 -66.19642,2.33567 -123.41071,4.36531 -127.14285,4.51029 -3.73215,0.14499 -8.30115,0.14563 -10.15336,0.001 z"
       style="fill:none;stroke-width:0.714286" />
    <path
       d="m 174.12109,122.09375 -9.09765,8.64063 -9.09571,8.64062 1.86719,4.61328 c 2.24505,5.54575 2.98418,14.1644 1.73242,20.1875 -2.54669,12.25387 -12.20936,22.63813 -24.55078,26.38672 -6.84203,2.07821 -16.70571,1.61919 -23.28906,-1.08594 -2.52148,-1.03609 -4.6543,-1.80462 -4.73828,-1.70703 -0.084,0.0976 -3.38445,12.39174 -7.333986,27.32031 l -7.179687,27.14258 -0.474609,17.5 c -0.434317,16.0049 -0.317105,18.90272 1.373046,33.92774 1.488333,13.23091 5.003749,34.54523 7.208986,43.70507 0.26982,1.12074 1.03141,1.64502 2.69531,1.85157 5.84476,0.72562 7.141,0.58068 6.60352,-0.73438 -0.281,-0.6875 -0.6716,-9.44698 -0.86719,-19.46484 -0.27234,-13.94701 -0.0816,-20.80757 0.81445,-29.28516 5.94348,-56.23222 30.87172,-104.77107 68.89063,-134.14062 3.68221,-2.84451 7.17921,-5.44307 7.76953,-5.77344 0.87439,-0.48933 0.43853,-1.37813 -2.34766,-4.79883 -4.14535,-5.08936 -7.91682,-12.8054 -9.10351,-18.62305 z"
       transform="scale(0.26458333)"
       style="fill:#ffffff;stroke-width:0.714285"
       id="path58" />
    <path
       d="m 326.75,125.56055 c -0.29532,0 -0.93301,1.66938 -1.41797,3.71093 -1.20533,5.07414 -4.3744,11.58228 -7.92383,16.26954 -1.6282,2.15013 -2.96093,4.08441 -2.96093,4.29882 0,0.21442 2.95638,2.47338 6.57031,5.01954 8.28205,5.83501 21.83636,18.8462 29.34961,28.17578 29.64194,36.80794 45.56203,88.31685 43.53125,140.84375 l -0.33594,8.67578 6.33594,-0.37696 c 3.4845,-0.20778 6.47124,-0.50012 6.63867,-0.64843 0.16747,-0.1483 1.22352,-5.81098 2.3457,-12.58399 1.62928,-9.83375 2.17102,-16.05464 2.68946,-30.88476 0.61394,-17.56208 0.55192,-19.41956 -1.14063,-34.16211 l -1.73047,-15.07422 c -0.0134,-0.0136 -0.003,-3.1e-4 -0.0195,-0.0215 -0.008,-0.008 -0.009,-0.0179 -0.0117,-0.0273 -0.0189,-0.0561 -0.0329,-0.10672 -0.0254,-0.16601 -0.0223,-0.0457 -0.0374,-0.0731 -0.0449,-0.12305 -0.002,-0.0152 -8.5e-4,-0.0318 -0.004,-0.0469 -0.0197,-0.0987 -0.0536,-0.21395 -0.0801,-0.30859 h -0.002 c -0.0104,-0.0381 0.001,-0.0613 0.002,-0.0918 l -11.3496,-24.14062 c -6.3111,-13.42557 -11.67382,-24.61723 -11.91797,-24.8711 -0.24405,-0.25387 -2.4953,-0.12351 -5.00196,0.29102 -13.66921,2.2605 -29.78989,-5.88264 -36.01953,-18.19531 -5.53143,-10.93269 -5.41683,-23.88026 0.30274,-34.02735 1.18494,-2.10221 2.05369,-3.90688 1.92968,-4.00976 -0.44683,-0.37077 -19.18491,-7.52539 -19.70898,-7.52539 z"
       transform="scale(0.26458333)"
       style="fill:#ffffff;stroke-width:0.714285"
       id="path60" />
    <ellipse
       ry="5.351788"
       rx="3.9889958"
       cy="93.574562"
       cx="29.131319"
       id="path188"
       style="fill:#ffffff;stroke-width:0.264583" />
    <ellipse
       style="fill:#ffffff;stroke-width:0.264583"
       id="path188-3"
       cx="105.13239"
       cy="91.586739"
       rx="3.9889958"
       ry="5.351788" />
    <path
       id="path211"
       d="m 54.76413,35.343729 10.17788,-3.043825 11.882599,3.412239"
       style="fill:none;stroke:#000000;stroke-width:0.264583px;stroke-linecap:butt;stroke-linejoin:miter;stroke-opacity:1" />
    <path
       id="path213"
       d="M 64.94201,32.299904 64.837269,22.493319"
       style="fill:none;stroke:#000000;stroke-width:0.264583px;stroke-linecap:butt;stroke-linejoin:miter;stroke-opacity:1" />
    <ellipse
       ry="1.0952779"
       rx="2.5180149"
       cy="21.750204"
       cx="64.94709"
       id="path215"
       style="fill:#000000;stroke-width:0.264583" />
  </g>
</svg>
